<svg xmlns="http://www.w3.org/2000/svg" viewBox="0 0 64 64"><defs><linearGradient id="gold" x2="0.8" y2="1"><stop stop-color="#fff0ad"/><stop offset=".5" stop-color="#bd913f"/><stop offset="1" stop-color="#79521f"/></linearGradient><radialGradient id="bg"><stop stop-color="#27313e"/><stop offset="1" stop-color="#090e15"/></radialGradient></defs><path d="M32 2 56 12 60 36 48 54 32 62 16 54 4 36 8 12Z" fill="url(#bg)" stroke="url(#gold)" stroke-width="2"/><path d="M32 7 52 16 55 35 44 50 32 56 20 50 9 35 12 16Z" fill="none" stroke="#c49c50" stroke-opacity=".3"/><path d="M30 12C12 17 12 35 29 37L37 39C49 43 39 53 27 48" fill="none" stroke="#146a6b" stroke-width="11"/><path d="M30 12C12 17 12 35 29 37L37 39C49 43 39 53 27 48" fill="none" stroke="url(#gold)" stroke-width="6"/><path d="M29 15 27 23 35 31 47 25 49 17 40 11Z" fill="#238f88" stroke="url(#gold)" stroke-width="2"/><path d="M30 19 36 23 45 20 M36 23 36 29" fill="none" stroke="#dfc77b" stroke-width="1.5"/><path d="m38 15 4 1-3 3Z" fill="#ffed9f"/><path d="M47 24 51 28 54 26 M51 28 51 31" fill="none" stroke="#daa95a" stroke-width="1.5"/><path d="m27 48-7-2 4 7Z" fill="url(#gold)"/></svg>