<svg xmlns="http://www.w3.org/2000/svg" viewBox="0 0 64 64">
<defs>
 <linearGradient id="gold" x1="0" y1="0" x2="1" y2="1"><stop stop-color="#ffe28a"/><stop offset=".5" stop-color="#d6a63e"/><stop offset="1" stop-color="#76501b"/></linearGradient>
 <linearGradient id="venom" x1="0" y1="0" x2="0" y2="1"><stop stop-color="#b8ef68"/><stop offset="1" stop-color="#31754b"/></linearGradient>
</defs>
<path d="M32 2 55 13v19c0 15-9 24-23 30C18 56 9 47 9 32V13Z" fill="#09130f" stroke="url(#gold)" stroke-width="2"/>
<path d="M19 17c5 0 9 2 13 7 4-5 8-7 13-7l-5 8 5 6-8 3-5 17-5-17-8-3 5-6Z" fill="url(#venom)" stroke="#d9ba58" stroke-width="1.5" stroke-linejoin="round"/>
<path d="m24 27 5 3-3 8m14-11-5 3 3 8" fill="none" stroke="#fff1b0" stroke-width="2" stroke-linecap="round"/>
<path d="M29 25h1m4 0h1" stroke="#10160c" stroke-width="3" stroke-linecap="round"/>
</svg>